Coordinates
version=1
nRows=20
nColumns=34
inDegrees=yes

Units are S.I. units (second, meters, Newtons, ...)
If the header above contains a line with 'inDegrees', this indicates whether rotational values are in degrees (yes) or radians (no).

endheader
time	pelvis_tilt	pelvis_list	pelvis_rotation	pelvis_tx	pelvis_ty	pelvis_tz	hip_flexion_r	hip_adduction_r	hip_rotation_r	knee_angle_r	ankle_angle_r	subtalar_angle_r	mtp_angle_r	hip_flexion_l	hip_adduction_l	hip_rotation_l	knee_angle_l	ankle_angle_l	subtalar_angle_l	mtp_angle_l	lumbar_extension	lumbar_bending	lumbar_rotation	arm_flex_r	arm_add_r	arm_rot_r	elbow_flex_r	pro_sup_r	arm_flex_l	arm_add_l	arm_rot_l	elbow_flex_l	pro_sup_l
      7.70000000	     -1.07002121	     -4.57924013	    -59.29793628	      0.65382743	      1.07859102	      0.34442971	     -5.36847290	     -6.02192258	     -8.62498791	     14.23759582	     15.18054232	     -3.94778222	      0.00000000	    -12.55223426	      5.31214226	      5.12892310	      3.89299736	     22.57510997	      4.74856454	      0.00000000	     -6.46642727	      5.34084284	     -7.03088325	     -0.55888080	    -11.97117663	     11.68424073	     13.55676794	    117.71471344	      9.15278158	     -5.77200163	     24.64383899	     20.05650996	    116.59058872
      7.71666670	     -1.09075194	     -4.40093129	    -59.36751221	      0.65614392	      1.07821271	      0.34415165	     -5.40561971	     -6.21112251	     -8.50833329	     13.85973394	     15.03198010	     -3.93528261	      0.00000000	    -12.57236114	      5.53811344	      5.22002855	      3.60803058	     22.56048448	      4.85198549	      0.00000000	     -6.11690322	      5.23740575	     -7.09758991	     -0.60176391	    -12.24109141	     11.68931270	     13.57157876	    117.70755099	      8.75711032	     -5.58588532	     24.74082357	     20.07574429	    116.57326747
      7.73333330	     -1.16151687	     -4.40942955	    -59.31646673	      0.65715495	      1.07819743	      0.34337819	     -5.39133342	     -6.19932956	     -8.49780919	     13.82830416	     15.01719636	     -3.93060742	      0.00000000	    -12.54989380	      5.51443397	      5.22272601	      3.55684948	     22.55331265	      4.85875043	      0.00000000	     -6.13350610	      5.11135177	     -7.06768789	     -0.59531249	    -12.27905235	     11.68934670	     13.57784082	    117.70697710	      8.68503757	     -5.56114182	     24.75451644	     20.07687667	    116.57235873
      7.75000000	     -1.31132996	     -4.04374506	    -59.26733783	      0.65905568	      1.07774899	      0.34386723	     -5.39220936	     -6.26436985	     -8.35064240	     13.14161310	     14.65459342	     -3.93985629	      0.00000000	    -12.59489356	      5.59864850	      5.51417910	      2.77026192	     22.19257267	      5.16238772	      0.00000000	     -5.41180718	      4.89299144	     -7.11110208	     -1.07567550	    -12.38675215	     11.81472131	     13.85331438	    117.71806587	      8.07378841	     -5.58955767	     25.05154488	     20.56624666	    116.52870722
      7.76666670	     -1.37830409	     -4.04890670	    -59.21110699	      0.65990282	      1.07780277	      0.34276600	     -5.36309959	     -6.26994835	     -8.34270434	     13.09183596	     14.64252439	     -3.93215190	      0.00000000	    -12.55079562	      5.59584268	      5.51468927	      2.71641899	     22.19856710	      5.15875345	      0.00000000	     -5.49059854	      4.80259294	     -7.08552094	     -1.06467035	    -12.43510855	     11.81217954	     13.86063764	    117.71678482	      7.99764976	     -5.52109622	     25.07759323	     20.58546172	    116.53014297
      7.78333330	     -1.53170981	     -3.79697250	    -59.25390837	      0.66175849	      1.07761251	      0.34192442	     -5.43425684	     -6.34505023	     -8.29158368	     12.30934602	     14.09928352	     -3.62648131	      0.00000000	    -12.46913814	      5.70762087	      5.72215467	      2.27089182	     21.99846979	      5.21375895	      0.00000000	     -5.11351636	      4.79513068	     -6.96989482	     -1.29798439	    -12.65408924	     11.85271952	     14.16978610	    117.70771688	      7.53670684	     -5.42041729	     25.51371105	     21.29614653	    116.53165900
      7.80000000	     -1.73440597	     -3.73257978	    -59.26672374	      0.66312590	      1.07763301	      0.34082009	     -5.52578730	     -6.26574346	     -8.45945753	     11.75117041	     13.76748849	     -3.42004346	      0.00000000	    -12.45324393	      5.66597477	      5.80767468	      1.92440932	     21.79422254	      5.07759641	      0.00000000	     -4.98997652	      4.91604512	     -6.81459683	     -1.43946038	    -12.80503800	     11.86315769	     14.42698578	    117.68802070	      7.21047441	     -5.36845251	     26.05295376	     21.91166393	    116.53125900
      7.81666670	     -1.87074938	     -3.67902841	    -59.31282270	      0.66430474	      1.07770804	      0.33962993	     -5.62457250	     -6.25270094	     -8.61237511	     11.21661748	     13.41825311	     -3.09233314	      0.00000000	    -12.44191398	      5.66691570	      5.93109685	      1.64104751	     21.64834738	      4.93517089	      0.00000000	     -4.94491593	      4.95073507	     -6.62679017	     -1.45825808	    -12.86319665	     11.86231628	     14.53676282	    117.67086154	      7.01198978	     -5.22476801	     26.59626877	     22.26767591	    116.52996712
      7.83333330	     -1.88865233	     -3.86370048	    -59.18178054	      0.66555890	      1.07805339	      0.33845596	     -6.08981290	     -6.25397674	     -9.46103460	     10.64508398	     13.48799467	     -1.91252834	      0.00000000	    -12.95037357	      5.59932816	      7.19237341	      0.91823961	     20.94084128	      3.48390928	      0.00000000	     -5.19564567	      4.98503671	     -6.35256438	     -1.57164147	    -12.88863273	     11.97954862	     14.69830559	    117.58353018	      7.32008410	     -5.32459761	     29.86527180	     22.29007063	    116.12634810
      7.85000000	     -2.02089946	     -3.75910739	    -59.24605963	      0.66630428	      1.07792904	      0.33720313	     -6.00644347	     -6.26505073	     -9.45455452	     10.29960867	     13.30780701	     -1.74919428	      0.00000000	    -12.78495087	      5.62814590	      7.26005776	      0.80174966	     20.89323112	      3.49059710	      0.00000000	     -5.16629919	      4.97884491	     -6.18029976	     -1.36518743	    -12.87731628	     11.97905846	     14.70648671	    117.58026811	      7.21965749	     -4.98425688	     29.94691742	     22.39115672	    116.09680029
      7.86666670	     -2.21175088	     -3.64992851	    -59.37588441	      0.66705053	      1.07782656	      0.33643720	     -5.99879213	     -6.21045658	     -9.42132552	      9.78627814	     12.96298246	     -1.38889815	      0.00000000	    -12.63574027	      5.60662341	      7.25865310	      0.66511234	     20.82745289	      3.39381542	      0.00000000	     -5.01550703	      4.99827485	     -5.85613581	     -1.27396197	    -12.81266877	     12.02449621	     14.55859902	    117.59019827	      7.02292808	     -4.59287986	     30.08982672	     22.50013912	    116.05565063
      7.88333330	     -2.29647319	     -3.65876771	    -59.34775788	      0.66772129	      1.07779235	      0.33571473	     -5.98626349	     -6.18511299	     -9.43775286	      9.69087093	     12.93378935	     -1.34493019	      0.00000000	    -12.59451877	      5.57903141	      7.24717089	      0.61480056	     20.82596013	      3.36519213	      0.00000000	     -5.06211206	      4.91953613	     -5.73992081	     -1.16088637	    -12.61802385	     12.05715435	     14.59541471	    117.59816781	      6.87183392	     -4.25057115	     30.16837855	     22.55500316	    116.05737078
      7.90000000	     -2.58663962	     -3.64675597	    -59.65001667	      0.66834844	      1.07774879	      0.33550733	     -6.08931422	     -5.98250369	     -9.43301829	      9.03271202	     12.47331398	     -0.70209033	      0.00000000	    -12.56693845	      5.44134294	      7.08732537	      0.39063410	     20.74860519	      3.02189397	      0.00000000	     -4.89060630	      5.06907546	     -5.16269621	     -1.09203556	    -12.52649644	     12.22407524	     14.18805870	    117.64576523	      6.65709287	     -3.80976998	     30.44195991	     22.63895335	    115.99283730
      7.91666670	     -2.66211558	     -3.65801259	    -59.62839567	      0.66901013	      1.07769383	      0.33490556	     -6.06446551	     -5.96672790	     -9.45099575	      8.97009558	     12.47978420	     -0.67860123	      0.00000000	    -12.53864528	      5.42499463	      7.09565524	      0.34356638	     20.75301861	      3.00619972	      0.00000000	     -4.97283493	      5.00174514	     -5.07133915	     -0.97636886	    -12.29989963	     12.26094126	     14.24691871	    117.65470989	      6.51865854	     -3.46784129	     30.52103264	     22.69691646	    115.99563530
      7.93333330	     -2.94019336	     -3.76916216	    -59.99602477	      0.66931102	      1.07771766	      0.33497341	     -6.13667083	     -5.71530811	     -9.44253759	      8.62268943	     12.37151257	      0.06558568	      0.00000000	    -12.71419256	      5.20899170	      7.13247146	      0.00000000	     20.63701221	      2.57032864	      0.00000000	     -4.97278617	      5.18703544	     -4.55408096	     -0.87456006	    -12.11585087	     12.48766755	     13.91603388	    117.70460884	      6.26029153	     -3.14638300	     30.98628782	     22.89125518	    115.85687193
      7.95000000	     -2.99675973	     -3.77491419	    -59.97255744	      0.67017811	      1.07760795	      0.33441870	     -6.11721503	     -5.72834833	     -9.46273776	      8.58058775	     12.36614875	      0.08188991	      0.00000000	    -12.66634339	      5.23105606	      7.16138082	      0.00000000	     20.65214108	      2.56510187	      0.00000000	     -5.05602293	      5.11615425	     -4.48782130	     -0.79311965	    -11.87766625	     12.51576306	     13.98082881	    117.71001374	      6.09645761	     -2.79069447	     31.07126332	     22.96698469	    115.85967655
      7.96666670	     -3.05858963	     -3.76266865	    -59.98757169	      0.67114197	      1.07748532	      0.33386880	     -6.10519800	     -5.73210905	     -9.49355212	      8.53608654	     12.34994716	      0.10241179	      0.00000000	    -12.63144540	      5.24693856	      7.19590153	      0.00000000	     20.67008675	      2.56213420	      0.00000000	     -5.11551342	      5.04704181	     -4.42081751	     -0.71596175	    -11.64459673	     12.53442629	     14.04099570	    117.71212616	      5.87947129	     -2.44815767	     31.16703822	     23.05597442	    115.86369809
      7.98333330	     -3.22362038	     -3.60995035	    -60.09374946	      0.67237490	      1.07708928	      0.33423436	     -5.95655522	     -5.75772551	     -9.55372403	      8.39689765	     12.21711080	      0.51900212	      0.00000000	    -12.43634396	      5.27151061	      7.33337863	      0.00000000	     20.84086622	      2.41416625	      0.00000000	     -4.85826833	      5.00142579	     -4.33681603	     -0.73724860	    -11.46420202	     12.39567132	     13.99286542	    117.63833476	      5.23016818	     -2.33312285	     31.62934359	     23.90814308	    115.78589450
      8.00000000	     -3.30113788	     -3.62010254	    -60.06188799	      0.67341462	      1.07687301	      0.33391429	     -5.92765827	     -5.73048606	     -9.57551258	      8.43674338	     12.25247305	      0.51288743	      0.00000000	    -12.41970710	      5.24349141	      7.36242057	      0.00000000	     20.82521214	      2.42753163	      0.00000000	     -4.94183621	      4.91107618	     -4.29412183	     -0.66643044	    -11.21446680	     12.40468518	     14.07149519	    117.63642212	      4.97269580	     -2.03734049	     31.72665123	     23.97410080	    115.78720359
      8.01666670	     -3.40895480	     -3.49711211	    -59.92312124	      0.67442865	      1.07632274	      0.33377058	     -5.48968396	     -5.81677869	     -9.69603127	      9.04395568	     12.64791498	      0.56013049	      0.00000000	    -12.23572596	      5.26138109	      7.48463683	      0.00000000	     20.94513448	      2.40700110	      0.00000000	     -4.86913978	      4.78517625	     -4.53529984	     -0.62930970	    -11.00453933	     12.13773581	     14.29009908	    117.50949721	      4.30453645	     -2.13858801	     32.19870341	     24.93786689	    115.65516274
